          <svg xmlns="http://www.w3.org/2000/svg" version="1.1" viewBox="0 0 2048 2048" width="240" height="240">
            <path
              transform="translate(1043,136)"
              d="m0 0h17l19 2 21 5 20 8 16 9 16 12 13 12 3 3 5-2 22-11 20-8 14-4 13-2h37l20 1 20 3 15 4 16 6 13 7 13 9 14 12 11 14 8 14 7 20 3 19 15 2 14 5 11 7 11 9 11 14 9 17 7 19 5 21 3 23 1 13v27l-3 29-6 31-7 27-12 35-10 24-7 13-8 10-9 9-9 6-11 4-7 1-2 13-2 17v11l3 21 6 21 8 18 10 18 12 17 9 11 9 10 12 13 16 15 10 9 11 9 14 12 10 8 15 13 11 9 13 12 4 3v2l4 2 14 14 7 8 13 16 14 21 10 18 9 23 5 19 3 18 1 10v36l-4 28-6 25-8 24-7 17-10 19-7 13 2 50 3 58 6 86 9 99 8 71 15 118-1 6-7 1-4-2-3-12-8-57-9-76-8-76-6-67-6-82-4-81-1-15-11 15-10 13-13 16-9 10-12 13-15 16-15 14-15 15-8 7-7 7-4 7-12 7-14 9-15 6-11 3h-13l-12-3-14-7-4 1-16 13-13 9-13 8-20 11-24 10-24 8-28 6-28 3h-39l-32-4-25-6-24-8-20-9-15-8-3-5 4-6 6 1 29 13 30 10 21 5 22 3 14 1h29l21-2 31-6 26-8 23-10 19-10 21-14 14-11 10-9 8-7 13-14 9-11 9-12 8-12 8-13 4-7-1-7-10-25-10-21-10-18-8-12-11-15-12-14-11-11-14-11-18-12-15-8-25-9-20-4h-13l-10 11-9 11-12 14-14 17-11 13-1 3 16 13 1 1v5l-3 4-6-1-20-14-14-10-18-13-69-46-47-29-15-9-26-15-25-14-54-29-5-4 1-7 5-2 16 7 27 14 23 13 33 18 3 1 1-8 9-24 3-3 7 1 2 1-1 8-8 24-3 7 10 7 20 12 38 24 54 36 34 24 4-5 9-11 11-14 12-14 13-15 12-14 16-17 14-15 9-9 7-8 8-8h2v-2l8-7 16-16 8-7 12-11 10-8 5-1 5 4-1 5-11 11-8 7-16 15-13 12-34 34v2l21 5 20 7 20 9 19 11 16 11 16 13 5 4v2l4 2 9 9 18 22 11 17 12 23 10 26 6 23 4 24 1 11 1 26 10-9 39-39 7-8 13-14 9-11 13-16 12-17 13-21 14-27 11-27 7-24 4-20 3-26v-23l-3-26-5-21-8-21-10-19-8-12-12-16-9-10-7-8-21-21-8-7-15-13-13-11-11-9-13-11-14-12-12-11-15-14-15-16-11-14-10-14-11-19-8-17-8-24-4-21v-31l3-17v-4l-8-3-1-1v-6l3-4 16-1 8-4 4-5 4-10 4-19 2-16v-25l-2-13-5-10-5-4-6-2h-9l-9 4-7 8-4 11-2 13-6 4-5-2-6-8-9-15-10-21-10-30-5-24-2-18-2-27-13 11-18 13-21 13-23 12-25 10-26 8-29 6-26 3h-45l2 13 4 30 9-8 8-4 8-1 6 3 1 2v9l-6 8-8 6-8 2h-8l3 16 7 39 15 1 10 3 7 6 3 6v8l-6 8-6 4-11 3h-4l8 36 7 25 5 13 7 14 8 10 4 4v2l4 2 12 9 15 7 16 4h22l17-4 17-8 12-7 4 1 3 3-1 6-12 9-16 8-8 3-3 19-5 16-7 14-9 12-6 7h-2v2l-14 11-7 6-4 10-1 5v12l3 10 6 10 8 7 11 5 8 2h27l20-4 24-7 19-8 16-8 14-8 17-12 11-9 10-9 18-18 1-2h2l2-4 6-7h6l3 3 1 3-10 14-9 10 3 5-1 6-7 8 8-5 5 2 3 5-7 8-16 13-11 9-16 13-8 6-10-2-16 11-18 10-20 8-13 4-17 3-16 1-18-2-15-4-17-8-9-7-5-4v-2l-3-1-9-13-5-11-3-10-1-7 1-17 1-4-6 2h-11l-2-3v-5l4-3 17-4 16-6 11-6 10-8 7-6 8-10 6-10 6-15 5-19 1-2-3 1h-20l-17-3-15-6-14-8-10-8-10-10-10-15-8-17-7-22-8-34-2-11v-5l-7-1-10-5-7-7-1-3v-8l4-6 12-8-8-45-7-48-3-27-8-1-13-5-10-7-2-2-4-24-1-18v-11l2-25 5-28 6-21 1-2-12 4-7 1h-24l-17-2-26-5-15-4-1 19-4 33-7 41-6 27-8 31-8 26-11 31-13 32-13 28-11 22-10 18-7 12 1 3 19 13 17 12 18 13 14 10 18 13 4 3 2-4 10-6 4-1h12l11 4 14 10 16 12 18 13 27 18 21 13 22 13 29 16 46 23 4 4-2 6-3 3-15-6-17-8-19-10-24-13-22-13-26-16-22-15-3-1 1 3-6 24-14 43-13 30-11 20-11 16-22 26-7 8-5 6-10 7-9 3-9-1-8-3-7 1-3-3 1-6 10-14 13-17 11-16 13-20 11-19 10-18 14-28 10-25 3-10-9-7-9-6-19-14-36-26-17-12-36-26-16-12-4 2-12 18-7 9-5 1-5-4 1-4 12-20 11-17 14-24 12-23 12-24 16-38 12-33 12-40 8-33 7-36 5-36 4-40 1-4h9l25 6 26 6 7 1h25l16-4 16-8 9-7 5-5h2l2-4h2l2-4 8-9 10-16 6-14 4-10 3-3 5 1 5 5 8 16 11 26 7 11 4 3 6 1 7-3 2-2 1-5v-11l-3-19-6-18-10-19-8-10-9-10-11-10-15-10-16-8-15-6-21-5-10-1h-30l-21 3-22 6-17 6-20 9-21 12-18 12-17 13-14 12-8 7-12 11-29 29-1 2h-2l-2 4-10 10-7 8-11 12-1 2h-2l-2 4-11 12-9 11-12 14-8 10-10 13-12 16-11 16-8 12-10 16-15 26-8 15-11 24-10 26-7 21-7 27-5 26-3 26v28l5 29 6 23 9 26 9 20 11 20 14 21 10 13 11 13 11 12 12 12 11 9 6 6-1 7-2 2h-5l-14-11-13-12-15-15-9-11-11-14-12-18-10-17-12-24-10-26-7-23-5-23-2-14v-37l3-26 5-26 5-20 8-25 9-24 10-23 10-19 12-22 16-26 16-23 14-19 10-13 10-12 9-11 12-14 9-10 9-11 10-10 7-8 22-24 30-30 8-7 14-12 14-11 18-13 22-13 17-9 25-10 25-7 15-3zm253 35-10 1-3 2-1 6 2 3 9 1 8-2 2-2 1-6-1-2zm34 11-3 4v5l8 5 15 9 9 8 14 19 4 2 6-5-1-5-6-11-12-13-9-8-16-8-5-2zm94 111-3 4v5l18 13 10 10 9 14 7 16 6 19 5 20 3 5 8-1 1-1v-8l-5-22-8-23-8-16-7-11-8-9-12-9-9-5zm-167 91-18 10-3 4 1 5 3 3 5-1 15-9 3-3-1-6-3-3zm-56 25-31 9-17 3-11 1h-19l-19-2-24-4-3 5 1 5 8 4 17 4 24 2 23-1 19-3 25-7 13-5 2-4-3-7zm277 12-1 1-1 7v16l2 1h7l2-3 1-9v-11l-1-2z"
              fill="#010101"
            />
            <path
              transform="translate(263,1232)"
              d="m0 0 9 3 28 12 27 9 25 6 30 5 48 6 63 5 30 2 48 2 45 1h87l42-1 80-4 66-5 59-6 80-10h7l2 3 5 32 5 44 2 27 1 28v30l-2 50-4 39-7 45-8 38-9 34v13l3 9 7 8 8 4 3 1h14l10-1 2 6-3 4-10 3h-15l-11-4-9-7-7-11-3-7-1-9 4-20 9-38 8-42 5-39 2-16-39 7-43 7-37 5h-5l-1 14-4 33-1 10 18-11 11-7 6-1 6 9 14 26 19 38 10 19v5l-6 7-10 13-1 2 7 8 9 10 13 19 4-2 8-10h3l22 44 10 19 15 29 10 19 19 38 1 6-6 7-16 8-19 9-22 12-28 15-18 10-24 13h-6l-7-10-9-16-14-24-16-28-9-15 1-5 9-10 7-8-1-5-13-13-11-14-5-7h-2l-7 10-4 4-4-5-17-32-10-19-23-46-14-31-17 1-22 2-1 1-1 22v22l2 5 7 3 5 6 4 11 2 6v6l-1 2-2 21-3 18-6 25-8 23-9 20-7 14-8 11-8 7-6 2h-8l-9-3-4-5-3-9-1-8v-28l3-27 5-22 6-19 9-21 8-15 9-11 10-6h2l-2-10-5 3-11-2-15-8-17-12-13-11-7-6-58-1 7 38v14l-4 15-7 12-9 10-7 6-5 1-3-3 1-5 10-10 7-11 4-11 1-5v-17l-6-31v-3l-38-1-48-3h-10l-21 3-17 1v4l15-2h14l17 3 16 6 11 6 14 11 7 7 9 14 5 11 3 10 1 9v10l-3 12-5 12-8 11-9 10-10 8-13 8-11 5-19 5-16 3h-22l-16-4-16-8-9-7-11-11-8-14-4-11-2-10v-17l3-15 8-18 6-9 8-10 10-9 12-8-1-9-4-16-17-2-30-5-30-6-2-2 1-6 1-1h8l64 10-4-16-10-39v-4l-10 4h-9l-9-6-7-7-8-10-12-16-10-16-9-17v-2l-16-2-17-3-2-2 1-6 4-2 24 3-8-26-4-19v-17l4-10 7-8 5-3-47-5-37-5-13-2 1 3 3 40 5 39 6 32 7 32 10 36 12 36 11 29 8 21 1 4v10l-3 14-6 12-11 12-4 3-5-1-2-3 1-4 8-8 6-10 4-14v-12l-6-17-10-24-10-28-8-25-10-38-9-45-5-34-3-30-2-37v-49l2-34 4-36 3-22zm8 14-1 1-5 44-2 25-1 54 2 3 73 9 62 6 13 1v-82l1-24-6-2-36-5-31-6-29-8-26-10zm752 22-52 7-53 6-2 1 2 45 1 47 13-1 36-5h9l2 7-29 5-27 4-4 2-2 59-3 44 14-1 57-8 49-8 5-2 1-11 1-27v-52l-2-36-4-40-4-33-1-3zm-599 15-1 1-1 14v83l1 9 43 3 76 3h42l-2-38-2-36-1-29-9-1-66-3-68-5zm473 0-50 4-66 4-22 1-1 2 5 68 2 28 21-1 72-7 50-6 1-5-1-40-2-48zm-307 10-1 1 1 34 3 56 1 11 1 1h62l53-2 39-2 5-1v-18l-5-77-1-3zm312 94-72 8-44 4-15 1-5 1v16l2 74 1 11 64-4 63-6 7-1 2-16 2-27 2-57v-4zm-524 9 5 5 10 11 9 13 11 19 4 8 1-4-3-31-1-17-1-1-31-3zm46 4v11l4 42 4 30 2 7 66 7 55 4 21 1h18l-1-16-6-59-2-20-66-2-79-4zm319 2-68 3-79 2v12l7 70 2 13 1 1 18 1h98l35-1 1-1v-30l-2-62-1-8zm-307 99 6 30 3 23 5 23 10 39 4 6 7 1 5-12 4-1 2 1 1 12 6-2 11-5 19-5 17-1 7 2 3 3 1 8-5 7 30 2 26 1h16l-1-10-8-47-30 10-23 5-25 3h-29l-18-2-14-4-9-6-4-5-3-11 1-9 3-5 10-7 15-6 22-6 23-4 21-2h31l22 1-2-14-1-1-53-3-54-4-48-5zm459 1-68 6-58 4-1 74v43l35-3v-11l4-4 39-19 28-14 19-11 3-12 6-47 1-6zm-158 11-41 1h-89l1 13 1 3 12 6 5 6 3 8-1 11-5 5-8 5 3 22 7 40h49l-6-8-13-17-8-13-9-17-4-12v-13l5-10 6-5 4-2h10l12 5 12 8 13 11 7 7h2v2l14 14 9 11 13 18 11 17 4 1 1-2 1-22 1-93zm-270 119-1 2 4 16 3-1-2-16zm459 24-10 3-10 6-8 9-3 6v5l3 4v3l-8 3-1 5v24l3 13 9 15 13 16 11 12 8 6 11 5 14 3h11l12-4 9-6 7-8 6-12 2-8v-21l-4-16-5-13-14-21-9-11-9-9-14-7-8-2zm-415 7-3 3 1 5 3 2 16 3 12 5 11 7 7 7 10 16 3 1 5-2-1-9-6-11-11-12-12-8-13-5-10-2zm60 63-3 3-3 9v6l4 4 5-3 3-7 1-8-3-4zm365 78-4 4 1 7 7 11 5 1 4-4-1-6-7-11zm21 35-4 3 1 7 11 21 9 14 3 3 6-2 1-1v-6l-11-21-10-16-2-2z"
              fill="#030303"
            />
            <path
              transform="translate(370,195)"
              d="m0 0h37l17 3 21 7 14 8 11 8 15 15 10 14 10 19 7 19 5 21 2 14 1 23-1 18-4 20-6 17-8 16-10 14-11 12-8 8-15 11-19 10-24 8-17 3-21 1-21-2-20-5-16-6-19-10-16-11-13-12-12-12-20-26-9-15-6-14-5-17-2-16v-14l3-19 5-16 5-12 8-13 9-12 8-9 11-9 14-10 16-9 19-8 24-7 22-4zm-42 73-8 4-4 5-2 6 1 7 6 12 10 13 14 18 2 4-15 12-17 13-11 9-5 6-2 5v6l5 8 5 3 7 1 13-4 23-15 12-8 7-5h3l12 16 11 14 7 9 7 8 8 4h7l6-4 4-5 1-4v-7l-5-12-15-24-13-18-1-3 4-2 11-9 14-12 13-12 4-6 1-9-3-6-7-6-3-1h-8l-12 6-16 12-18 14-4 2-14-17-13-15-7-8-7-4z"
              fill="#2BFECE"
            />
            <path
              transform="translate(1801,405)"
              d="m0 0h23l14 3 12 5 12 7 10 8 13 13 10 14 10 18 7 19 3 11 1 7v25l-3 15-6 16-6 11-8 11-9 10-12 10-16 9-16 6-19 4h-30l-15-3-18-6-21-11-18-12-13-12-10-14-7-15-4-15-1-6v-19l3-15 5-15 6-11 10-14 9-10 12-11 16-11 18-10 16-7 16-4zm10 34-7 3-5 4-8 16-4 12-1 6v31l3 20 3 6 5 2 5-1 6-7 10-22 6-18 3-15 1-8v-13l-3-8-4-5-3-2zm-24 116-7 6-1 9 3 6 6 4h9l7-6 1-2v-9l-4-6-3-2z"
              fill="#FEEA06"
            />
            <path
              transform="translate(940,1538)"
              d="m0 0 4 1 10 17 15 29 13 26 10 19v5l-6 7-10 13-1 2 7 8 9 10 13 19 4-2 8-10h3l22 44 10 19 15 29 10 19 19 38 1 6-6 7-16 8-19 9-22 12-28 15-18 10-24 13h-6l-7-10-9-16-14-24-16-28-9-15 1-5 9-10 7-8-1-5-13-13-11-14-5-7h-2l-7 10-4 4-4-5-17-32-10-19-23-46-14-31 3-2 66-9h6l-1 9-5 26v8l4 13 7 9 3 4-1 5v24l3 13 9 15 13 16 11 12 9 6 12 5 11 2h11l12-4 9-6 8-10 5-12 1-5v-21l-4-16-5-13-14-21-9-11-8-8-14-7-8-2h-16l-10 3-10 6-7 8-4 9-4-2-4-9-1-8 3-19 5-20 5-3 38-7 26-6 3-3-2-5h-9l-46 9-11 1 1-11 6-34 3-9 18-11 11-7zm-4 266-4 4 1 7 7 11 5 1 4-4-1-6-7-11zm21 35-4 3 1 7 11 21 9 14 3 3 6-2 1-1v-6l-11-21-10-16-2-2z"
              fill="#2CFECE"
            />
            <path
              transform="translate(605,944)"
              d="m0 0 7 1 2 5-6 15-2 9v18l3 10 7 12 4 5 2 1v-11l3-42 3-5 1-1 20-2h11l12 1 3 6v2l4-4 8-11 11-7 4-1h16l8 4 7 8 2 6v12l-5 13-7 13-12 16-12 13-9 6-6 1 15 115 12 94 2 22-7 1h-93l-8-1-1-1 1-20 6-78 8-111 2-22-4-2-10-9-7-11-5-11-3-12v-19l3-12 6-12zm102 13-8 3-5 4-8 14-7 15v11l3 22 5-2 17-17 11-17 7-15 1-9-3-5-3-3-3-1zm-49 31-4 2v13l13 113 5 38 2 6h10v-12l-8-72-10-81-2-6z"
              fill="#010101"
            />
            <path
              transform="translate(471,1634)"
              d="m0 0h10l29 3 11 2v1l-21 3-17 1v4l15-2h14l17 3 16 6 11 6 14 11 7 7 9 14 5 11 3 10 1 9v10l-3 12-5 12-8 11-9 10-10 8-13 8-11 5-19 5-16 3h-22l-16-4-16-8-9-7-11-11-8-14-4-11-2-10v-17l3-15 8-18 6-9 8-10 10-9 12-8 2 2v8l-2 9-6 11-7 8v5l4 1 8-5 7-10 5-14 1-22-1-4zm40 29-3 3 1 5 3 2 16 3 12 5 11 7 7 7 10 16 3 1 5-2-1-9-6-11-11-12-12-8-13-5-10-2zm60 63-3 3-3 9v6l4 4 5-3 3-7 1-8-3-4z"
              fill="#2CFECE"
            />
            <path
              transform="translate(1122,576)"
              d="m0 0 16 1 10 3 7 6 3 6v8l-6 8-6 4-11 3h-4l8 36 7 25 5 13 7 14 8 10 4 4v2l4 2 12 9 15 7 16 4h22l17-4 17-8 12-7 4 1 3 3-1 6-12 9-16 8-8 3-3 19-5 16-7 14-9 12-6 7h-2v2l-14 11-7 6-4 10-1 5v12l3 10 6 10 8 7 11 5 8 2h27l20-4 24-7 19-8 16-8 14-8 17-12 11-9 10-9 18-18 1-2h2l2-4 6-7h6l3 3 1 3-10 14-9 10 3 5-1 6-7 8 8-5 5 2 3 5-7 8-16 13-11 9-16 13-8 6-10-2-16 11-18 10-20 8-13 4-17 3-16 1-18-2-15-4-17-8-9-7-5-4v-2l-3-1-9-13-5-11-3-10-1-7 1-17 1-4-6 2h-11l-2-3v-5l4-3 17-4 16-6 11-6 10-8 7-6 8-10 6-10 6-15 5-19 1-2-3 1h-20l-17-3-15-6-14-8-10-8-10-10-10-15-8-17-7-22-8-34-2-11v-5l-7-1-10-5-7-7-1-3v-8l4-6 9-6 8-3z"
              fill="#020202"
            />
            <path
              transform="translate(860,914)"
              d="m0 0h8l43 7 15 4 7 5 4 8 1 3v14l-2 9 1 5 3 4-3 9-8 16-6 7-12 6-5 1-5 19-7 19-7 16-12 22-11 17-12 16-12 14-8 7-5-2-2-3 1-5 11-13 10-13 9-13 9-15 10-19 11-27 6-19v-2l-20-6-15-6h-2l-7 20-9 20-12 24-13 21-10 14-5 6-5 1-4-5 1-5 20-32 12-22 11-25 9-23-2-4-6-8-3-7-1-13 3-12 8-17 4-2 4 1 2-1 6-14z"
              fill="#FEEA07"
            />
            <path
              transform="translate(756,1689)"
              d="m0 0h1l3 10 7 13 7 8 4 3 8-1-2 23-3 18-6 25-8 23-9 20-7 14-8 11-8 7-6 2h-8l-9-3-4-5-3-9-1-8v-28l3-27 5-22 6-19 9-21 8-15 9-11 10-6h2z"
              fill="#FEEA06"
            />
            <path
              transform="translate(545,1526)"
              d="m0 0h31l18 1 4 1 5 32 1 17-20 7-21 6-25 4-11 1h-29l-18-2-14-4-9-6-5-6-3-11 1-9 4-6 10-7 15-6 22-6 23-4z"
              fill="#FEEA06"
            />
            <path
              transform="translate(1301,1068)"
              d="m0 0 16 4 27 9 20 9 19 11 16 11 16 13 5 4v2l4 2 9 9 18 22 11 17 12 23 10 26 6 23 4 24 1 11 1 28-8 7-8 8-3-1 1-3v-13l-3-18-8-26-15-38-14-29-13-22-12-16-8-10-11-12-11-11-14-11-15-10-19-10-22-8-17-4-10-1v-4l4-2 2-4 8-8z"
              fill="#2EFECE"
            />
            <path
              transform="translate(356,1752)"
              d="m0 0h5l2 2-2 13 5-4 4-5h5l2 2v5l-3 6 8-4 5 2 2 5-6 5v2h8l1 8-2 2-11 2 3 2 5 3-1 4-4 3h-6l-1 6h-6l-16-8-3-1v18l-3 10-6 9-8 7-11 4h-16l-13-5-6-4h-3l-7 17-3 10-2 2-5-1-2-2v-9l-6 4-5-1-2-4 3-5v-2l-5 1h-7l-3-3 1-4 5-4 2-1-10-1-4-3 1-4 3-3 3-2-5-4v-6l2-2h5l5 4 7 3 10 1 7-1v-21l5-13 7-9 9-6 8-3h18l13 5 4 3h2l2-20 3-4 4 1 3 6 4-7zm-51 30-9 4-8 7-6 11-1 6 4 4 4-1 5-8 6-8 9-6 2-2-1-6zm17 1-2 2v6l4 3h6l3-4-1-4-5-3z"
              fill="#FEEA06"
            />
            <path
              transform="translate(649,1535)"
              d="m0 0h10l12 5 12 8 13 11 7 7 2 1v2l4 2 7 8 10 11 14 19 12 19-2 2-9 1-68 3-2-4-12-15-12-18-10-19-4-12v-13l5-10 7-6z"
              fill="#FEEA06"
            />
            <path
              transform="translate(1411,836)"
              d="m0 0 3 3-1 6-7 8 8-5 5 2 3 5-7 8-16 13-11 9-16 13-8 6-10-2-16 11-18 10-20 8-13 4-17 3-16 1-18-2-15-4-17-8-9-7-5-4v-2l-3-1-9-13-5-11-3-10-1-7 1-17 1-3 11-4h3l-1 7 1 17 4 13 6 10 7 7 11 7 13 4 11 2h16l23-3 23-6 22-8 27-13 18-11 18-13 10-9 7-6h2v-2z"
              fill="#FDEA09"
            />
            <path
              transform="translate(1019,721)"
              d="m0 0 5 1 12 9 8 5-2 1 1 3-6 24-14 43-13 30-11 20-11 16-22 26-7 8-5 6-10 7-9 3-9-1-7-3 2-5 13-16 13-18 12-18 12-19 14-25 11-21 10-22 8-21 4-17z"
              fill="#30FECF"
            />
            <path
              transform="translate(845,930)"
              d="m0 0 7 1 1 2v6l-7 16-1 4v10l3 8 1 3 16 8 29 9 5 1h7l8-4 6-8 8-16 5-3 4 2 3 4-3 9-8 16-6 7-12 6-5 1-5 19-7 19-7 16-12 22-11 17-12 16-12 14-8 7-5-2-2-3 1-5 11-13 10-13 9-13 9-15 10-19 11-27 6-19v-2l-20-6-15-6h-2l-7 20-9 20-12 24-13 21-10 14-5 6-5 1-4-5 1-5 20-32 12-22 11-25 9-23-2-4-6-8-3-7-1-13 3-12 8-17z"
              fill="#010101"
            />
            <path transform="translate(360,1395)" d="m0 0 18 1 12 11 12 16 12 21 4 8 4 28v8l-21-2-41-6-4-2-8-26-4-19v-17l4-10 7-8z" fill="#FEEA07" />
            <path
              transform="translate(1846,1081)"
              d="m0 0h16l11 3 10 6 10 10 6 12 2 8v16l-4 12-7 11-9 8-10 5-12 3h-11l-12-3-9-5-8-7-7-11-4-9-1-4v-15l4-13 6-10 9-9 12-6zm0 21-8 4-6 7-4 10v11l5 10 8 7 9 3h9l10-4 7-7 4-10v-11l-3-8-6-7-10-5z"
              fill="#2BFECE"
            />
            <path
              transform="translate(259,787)"
              d="m0 0h8l13 3 9 5 10 9 6 9 4 11 1 6v8l-3 13-4 8-8 10-10 7-10 4-5 1h-17l-12-4-10-7-7-8-7-14-2-10 1-14 4-11 6-9 8-8 14-7zm-3 21-10 5-6 7-4 11v7l4 11 7 7 8 4 9 1 11-3 9-8 4-8v-15l-5-10-9-7-7-2z"
              fill="#FEEA06"
            />
            <path
              transform="translate(616,848)"
              d="m0 0h11l22 2 31 6 28 7 28 10 24 10 23 11 19 11 15 10 11 8 8 7v5l-4 4-6-1-23-16-21-13-25-13-32-13-21-7-27-7-25-5-16-2h-30l-15 3-14 6-9 7-8 8-5 6-6-1-2-2 1-6 7-11 10-9 14-8 17-5z"
              fill="#030303"
            />
            <path
              transform="translate(722,1011)"
              d="m0 0 6 1 8 11 11 17 16 25 24 36 14 20 18 24 13 16 9 11 10 11 7 8 6 6v2h2l7 8 13 12 10 9 11 9 10 9 4 4v5l-3 4h-5l-16-12-14-12-37-37-7-8-10-11-11-14-12-15-14-19-13-18-20-30-13-20-11-17-16-27-1-4z"
              fill="#020202"
            />
            <path transform="translate(363,1492)" d="m0 0h9l51 7 2 2 7 40 4 19-10 4h-9l-9-6-7-7-8-10-12-16-10-16-8-16z" fill="#FEEA07" />
            <path transform="translate(891,1567)" d="m0 0h2v7l-5 29-2 9-2 2-31 5-44 6h-7v-10l5-5 39-19 28-14z" fill="#32FECF" />
            <path transform="translate(1122,576)" d="m0 0 16 1 10 3 7 6 3 6v8l-6 8-6 4-15 4h-16l-9-4-6-4-5-5-1-3v-8l4-6 9-6 8-3z" fill="#FEEA06" />
            <path transform="translate(1303,560)" d="m0 0h12l9 3 5 4 3 6v9l-6 8-9 6-12 4-5 1h-13l-12-5-5-5-1-3v-8l3-6 7-6 10-5z" fill="#FEEA06" />
            <path
              transform="translate(1089,184)"
              d="m0 0 6 1 4 4-6 19-8 15-11 14-7 7-13 10-12 6-10 3h-13l-10-5-6-7-3-8v-17l3-9 5-1 5 3 1 4-1 4v14l4 6 5 3h9l12-5 12-8 13-13 9-14 5-10 6-15z"
              fill="#030303"
            />
            <path transform="translate(750,1641)" d="m0 0 7 1-1 29-1 9-6 4-11-2-15-8-17-12-13-11-7-6v-1z" fill="#FEEA08" />
            <path
              transform="translate(540,901)"
              d="m0 0 5 1 4 4-9 27-3 16v24l4 17 8 18 9 14 6 10-2 4-3 2-5-1-9-9-9-14-8-20-4-18-1-9v-14l2-17 4-15 7-16z"
              fill="#030303"
            />
            <path
              transform="translate(1175,530)"
              d="m0 0h5l3 5 3 33 2 27 3 12 2 5 4 2 3 1h11l4-2h7l3 5-2 5-6 4-9 2-11-1-10-5-6-7-5-12-2-14-3-42v-15z"
              fill="#040404"
            />
            <path
              transform="translate(564,929)"
              d="m0 0 9 3-1 10-3 16-1 9v11l2 14 5 16 8 16 8 14-3 5-5 1-5-4-7-10-8-16-5-14-3-15v-27l4-18 4-10z"
              fill="#030303"
            />
            <path
              transform="translate(1112,216)"
              d="m0 0 6 1 3 3-2 11-9 21-7 13-9 12-9 7-7 3-5 1h-10l-10-4-8-6-3-5 2-5 6-3 10 8 5 2h8l8-4 8-9 9-15 12-29z"
              fill="#040404"
            />
            <path transform="translate(477,1609)" d="m0 0 5 1 1 1v12l12-6 15-5 9-2 17-1 7 2 4 4 1 8-6 7-38-3-31-3-1-1 1-8z" fill="#36FED0" />
            <path transform="translate(1193,656)" d="m0 0 9 2 12 6 10 9 5 9 1 6-2 6-5 6-3 1h-8l-6-4-3-4-2-5v-10l1-6-10-4-4-5 3-5z" fill="#040404" />
            <path transform="translate(1414,848)" d="m0 0 5 2 3 5-7 8-16 13-11 9-16 13-8 6-5-1-4-4 2-5 12-11 10-8 14-12 8-7 4-2z" fill="#030303" />
            <path transform="translate(1257,478)" d="m0 0 10 1 10 5 5 4 5 8-1 7-4 4-2 1-11-1-9-5-5-6-3-5v-8z" fill="#020202" />
            <path transform="translate(609,1530)" d="m0 0 7 2 8 6 5 8 1 10-2 6-5 5-6 4h-2l-3-17-3-19z" fill="#FEEA09" />
            <path transform="translate(865,964)" d="m0 0 9 1 15 5 16 5 2 2-1 7-1 1h-11l-18-5-12-6-2-5z" />
            <path transform="translate(1140,542)" d="m0 0 9 1 5 4 2 5-1 6-6 7-8 1-5-3-4-5v-8l4-6z" fill="#050505" />
            <path transform="translate(1250,531)" d="m0 0 8 2 4 5 1 7-3 5-5 4-9-1-6-7v-6l4-6z" fill="#030303" />
            <path transform="translate(768,1690)" d="m0 0 8 3 5 6 4 11v5l-5-3v-2h-2l-6-9-4-9z" fill="#FEEA07" />
            <path transform="translate(477,1609)" d="m0 0 5 1 1 1v12l2 1h-12l-1-1 1-8z" fill="#3FFED2" />
          </svg>